<svg xmlns="http://www.w3.org/2000/svg" width="49" height="49" viewBox="0 0 49 49" fill="none">
  <path
    fillRule="evenodd"
    clipRule="evenodd"
    d="M41.96 14.74L41.68 14.24C41.3188 13.6354 40.8094 13.1329 40.2 12.78L26.78 5.04C26.1724 4.6875 25.4826 4.50124 24.78 4.5H24.2C23.4974 4.50124 22.8076 4.6875 22.2 5.04L8.78 12.8C8.17394 13.1505 7.67052 13.6539 7.32 14.26L7.04 14.76C6.6875 15.3677 6.50124 16.0575 6.5 16.76V32.26C6.50124 32.9626 6.6875 33.6524 7.04 34.26L7.32 34.76C7.67958 35.359 8.18098 35.8604 8.78 36.22L22.22 43.96C22.8246 44.3198 23.5164 44.5066 24.22 44.5H24.78C25.4826 44.4988 26.1724 44.3126 26.78 43.96L40.2 36.2C40.812 35.8574 41.3174 35.352 41.66 34.74L41.96 34.24C42.3082 33.6306 42.4942 32.942 42.5 32.24V16.74C42.4988 16.0375 42.3126 15.3477 41.96 14.74ZM24.2 8.5H24.78L36.5 15.26L24.5 22.18L12.5 15.26L24.2 8.5ZM26.5 39.5L38.2 32.74L38.5 32.24V18.72L26.5 25.66V39.5Z"
    fill="black"
  />
</svg>